<svg xmlns="http://www.w3.org/2000/svg" width="64" height="64" viewBox="0 0 64 64" fill="none"><rect width="64" height="64" rx="14" fill="#06060B"/><g transform="translate(8.96 16.32) scale(0.08760)"><defs><linearGradient id="iv" x1="0" y1="0" x2="253" y2="357" gradientUnits="userSpaceOnUse"><stop stop-color="#33C6F4"/><stop offset=".45" stop-color="#3F7DFB"/><stop offset=".82" stop-color="#7C5CFF"/><stop offset="1" stop-color="#6D28D9"/></linearGradient><linearGradient id="it" x1="300" y1="98" x2="525" y2="1" gradientUnits="userSpaceOnUse"><stop stop-color="#3F7DFB"/><stop offset="1" stop-color="#7C5CFF"/></linearGradient><linearGradient id="iw" x1="436" y1="130" x2="262" y2="298" gradientUnits="userSpaceOnUse"><stop stop-color="#F6F7FB"/><stop offset=".55" stop-color="#F6F7FB"/><stop offset="1" stop-color="#AEB4C6"/></linearGradient><linearGradient id="ik" x1="363" y1="290" x2="400" y2="306" gradientUnits="userSpaceOnUse"><stop stop-color="#AEB4C6"/><stop offset="1" stop-color="#F6F7FB"/></linearGradient></defs><path d="M320 130H436L317 298H208Z" fill="url(#iw)"/><path d="M425 202L526 356H408L363 290Z" fill="url(#ik)"/><path d="M0.4 1H107Q121.5 1 128.8 13L314 292C320 303 288 357 253 357C238 357 226 352 219.9 343Z" fill="url(#iv)"/><path d="M300 98L361 11Q368 1 380 1H525L458 98Z" fill="url(#it)"/></g></svg>
